<svg xmlns="http://www.w3.org/2000/svg" xmlns:xlink="http://www.w3.org/1999/xlink" viewBox="0 0 1200 600">
  <rect width="1200" height="600" fill="#00247d"/>
  <path fill="#fff" d="m0 0 600 300m0-300L0 300"/>
  <path stroke="#cf142b" stroke-width="60" d="m0 0 600 300m0-300L0 300"/>
  <path fill="#fff" d="M0 0v600h1200V0z"/>
  <path stroke="#cf142b" stroke-width="100" d="M0 300h1200M600 0v600"/>
  <path fill="#fff" d="M0 0v600h1200V0z"/>
  <path stroke="#fff" stroke-width="100" d="M0 300h1200M600 0v600"/>
  <path stroke="#cf142b" stroke-width="60" d="M0 300h1200M600 0v600"/>
  <path fill="#00247d" d="m600 300 600 300V300zM0 0v300h600z"/>
  <path fill="none" stroke="#fff" stroke-width="2" d="M600 300 0 0v600l600-300zm0 0 600 300V0L600 300z"/>
  <g transform="translate(600 300)">
    <path fill="#fff" d="m-600-300 1200 600m-1200 0L600-300"/>
    <path stroke="#cf142b" stroke-width="40" d="m-600-300 1200 600m-1200 0L600-300" stroke-dasharray="300 600"/>
  </g>
</svg>