<?xml version="1.0" encoding="utf-8"?>
<!-- Generator: Adobe Illustrator 28.2.0, SVG Export Plug-In . SVG Version: 6.00 Build 0)  -->
<svg version="1.1" id="Layer_1" xmlns="http://www.w3.org/2000/svg" xmlns:xlink="http://www.w3.org/1999/xlink" x="0px" y="0px"
	 viewBox="0 0 358.66 179.39" style="enable-background:new 0 0 358.66 179.39;" xml:space="preserve">
<style type="text/css">
	.st0{fill:#ED262A;}
	.st1{fill:#FFFFFF;}
	.st2{fill:#3C3C3C;}
</style>
<rect y="14.96" class="st0" width="112.98" height="112.98"/>
<rect x="122.84" y="14.96" class="st0" width="112.98" height="112.98"/>
<rect x="245.69" y="14.96" class="st0" width="112.98" height="112.98"/>
<path class="st1" d="M311.19,64.11c0.08-1.06,0.17-2.17,0.16-3.16c-0.01-2,0.07-4.02-0.19-6c-0.43-3.27-2.53-4.98-5.82-5.24
	c-4.38-0.34-8.26,0.54-10.7,4.56c-0.98,1.62-1.86,3.39-2.33,5.21c-2.22,8.54-3.36,17.24-3.46,26.07c-0.01,1.18,0.17,2.39,0.4,3.55
	c1.02,5.04,3.61,7.07,8.74,6.94c5.38-0.14,8.61-3.01,9.86-8.76c0.65-2.97,0.65-2.97,3.65-2.97c4.45,0,8.9,0,13.35,0
	c2.2,0,2.26,0.01,2.01,2.13c-0.67,5.52-2.14,10.79-5.39,15.41c-3.47,4.92-8.29,7.86-14.08,9.18c-7.54,1.71-15.08,1.8-22.54-0.51
	c-6.36-1.97-10.63-6.17-13-12.38c-1.77-4.66-2.12-9.51-1.99-14.4c0.23-8.79,1.51-17.43,3.85-25.9c1.29-4.67,3.17-9.1,6.02-13.08
	c4.07-5.68,9.61-9.15,16.39-10.45c7.38-1.41,14.79-1.4,21.97,1.12c8.4,2.95,11.99,9.06,12.46,17.29c0.19,3.36-0.32,6.77-0.53,10.15
	c-0.05,0.78-0.28,1.35-1.28,1.34L311.19,64.11z"/>
<path class="st1" d="M42.84,67.76l-4.51,38.44c-0.41,3.31-0.42,3.3-3.74,3.3c-4.16,0-8.33,0-12.49,0c-0.52,0-1.31,0-1.97,0
	l2.95-21.97c1.02-7.68,1.98-15.36,2.99-23.04c0.83-6.35,1.71-12.69,2.55-19.04c0.45-3.46,0.89-6.92,1.25-10.39
	c0.13-1.21,0.52-1.71,1.85-1.69c5.55,0.08,11.1,0.06,16.65,0.01c1.11-0.01,1.61,0.43,1.97,1.42c4.8,13.08,9.64,26.15,14.46,39.21
	c0.11,0,0.21,0.01,0.32,0.01c0.29-2.93,0.53-5.86,0.87-8.78c0.7-5.98,1.44-11.96,2.19-17.93c0.53-4.17,1.11-8.34,1.64-12.51
	c0.11-0.85,0.26-1.43,1.33-1.42l16.59,0.05c-0.22,2.02-0.47,4.14-0.73,6.11c-0.73,5.64-1.47,11.27-2.23,16.91
	c-1.21,9.05-2.47,18.09-3.65,27.15c-0.76,5.83-1.41,11.67-2.15,17.5c-0.31,2.46-0.76,4.91-1.07,7.38c-0.1,0.81-0.46,1.02-1.21,1.02
	c-5.89-0.02-11.77,0.01-17.65-0.05c-0.41,0-1.04-0.48-1.19-0.89L42.84,67.76z"/>
<path class="st1" d="M227.72,36.22c-0.61,2.15-1.25,4.38-1.86,6.48c-1.84,6.38-3.69,12.76-5.54,19.13c-1.44,4.95-2.9,9.9-4.34,14.85
	c-1.56,5.37-3.11,10.73-4.66,16.1c-1.77,6.1-3.57,12.19-5.29,18.3c-0.25,0.88-0.65,1.13-1.49,1.12c-7.08-0.02-14.17-0.04-21.25,0.02
	c-1.24,0.01-1.42-0.59-1.46-1.56c-0.28-6.98-0.59-13.96-0.88-20.94c-0.43-10.23-0.84-20.46-1.45-30.77
	c-0.54,1.65-1.12,3.3-1.63,4.96c-2.32,7.63-4.63,15.26-6.94,22.89c-2.1,6.95-4.21,13.89-6.31,20.84c-0.37,1.23-0.68,2.49-1.17,3.67
	c-0.16,0.4-0.8,0.84-1.23,0.84c-7.13,0.05-14.26,0.02-21.39,0.05c-1.05,0-1.27-0.45-1.29-1.39c-0.18-7.13-0.4-14.25-0.6-21.37
	c-0.48-17.17-0.96-34.33-1.43-51.5c-0.01-0.51,0-1.03,0-1.65c6.48,0,12.82,0,19.39,0c-0.23,16-0.47,31.99-0.7,47.99
	c0.07,0.03,0.14,0.05,0.21,0.08c0.13-0.24,0.32-0.46,0.39-0.72c2.36-7.77,4.71-15.54,7.05-23.31c2.26-7.5,4.53-15,6.72-22.51
	c0.35-1.21,0.84-1.67,2.15-1.66c6.6,0.07,13.21,0.06,19.81,0c1.26-0.01,1.63,0.38,1.67,1.61c0.27,8.94,0.59,17.88,0.93,26.82
	c0.26,6.74,0.58,13.47,0.87,20.21c0.07,0,0.13-0.01,0.2-0.01c1.15-4.63,2.31-9.26,3.46-13.89c2.37-9.54,4.74-19.09,7.1-28.63
	c0.41-1.67,0.8-3.34,1.17-5.02c0.15-0.68,0.41-1.07,1.23-1.07L227.72,36.22z"/>
<g>
	<path class="st2" d="M345.09,7.88V1.33h-2.34V0h6.26v1.33h-2.33v6.54H345.09z"/>
	<path class="st2" d="M350.02,7.88V0h2.38l1.43,5.37L355.24,0h2.38v7.87h-1.48v-6.2l-1.56,6.2h-1.53l-1.56-6.2v6.2H350.02z"/>
</g>
<g>
	<polygon class="st2" points="322.83,179.54 0,179.54 0,137.21 331.65,137.21 	"/>
	<polygon class="st2" points="339.6,137.21 336.33,137.21 327.36,179.54 330.63,179.54 	"/>
	<polygon class="st2" points="346.91,137.21 344.35,137.21 335.38,179.54 337.94,179.54 	"/>
	<polygon class="st2" points="352.62,137.21 350.94,137.21 341.97,179.54 343.65,179.54 	"/>
	<polygon class="st2" points="358.12,137.21 356.96,137.21 348,179.54 349.15,179.54 	"/>
</g>
<g>
	<path class="st1" d="M37.95,165.28v6.09H18.76v-25.51h19.19v5.89H26.44v3.7h9.31v5.66h-9.31v4.17H37.95z"/>
	<path class="st1" d="M52.54,171.37v-25.51h9.87c4.29,0,7.49,1.27,9.62,3.81c2.13,2.54,3.2,5.48,3.2,8.82c0,3.81-1.14,6.91-3.43,9.3
		s-5.25,3.58-8.9,3.58H52.54z M60.37,165.5h2.04c1.3,0,2.39-0.63,3.28-1.89c0.89-1.26,1.34-2.97,1.34-5.14c0-1.86-0.4-3.46-1.19-4.8
		c-0.79-1.35-1.93-2.02-3.43-2.02h-2.04V165.5z"/>
	<path class="st1" d="M110.7,145.86v16.89c0,3.2-0.95,5.5-2.85,6.91s-4.38,2.1-7.43,2.1c-3.21,0-5.8-0.67-7.75-2.02
		c-1.95-1.34-2.92-3.54-2.92-6.58v-17.3h7.96v16.39c0,1.22,0.26,2.11,0.77,2.67s1.34,0.84,2.47,0.84c0.94,0,1.72-0.2,2.32-0.61
		c0.6-0.4,0.96-0.86,1.08-1.37c0.12-0.51,0.18-1.51,0.18-2.99v-14.93H110.7z"/>
	<path class="st1" d="M140.4,161.63l7.16,0.43c-0.34,3.13-1.49,5.53-3.47,7.2c-1.98,1.67-4.4,2.5-7.28,2.5
		c-3.46,0-6.26-1.15-8.39-3.44c-2.13-2.29-3.2-5.46-3.2-9.49c0-4,1.01-7.23,3.03-9.68c2.02-2.45,4.83-3.68,8.45-3.68
		c3.38,0,5.97,0.93,7.78,2.8c1.81,1.87,2.84,4.35,3.07,7.44l-7.31,0.39c0-1.71-0.33-2.94-0.98-3.7c-0.65-0.76-1.42-1.14-2.31-1.14
		c-2.47,0-3.7,2.48-3.7,7.44c0,2.78,0.32,4.67,0.96,5.66s1.54,1.5,2.7,1.5C139,165.86,140.16,164.45,140.4,161.63z"/>
	<path class="st1" d="M175.54,171.37l-1.44-5.03h-6.83l-1.53,5.03h-6.36l7.88-25.51h8.28l8,25.51H175.54z M168.6,160.77h4.13
		l-2.06-7.4L168.6,160.77z"/>
	<path class="st1" d="M206.39,151.97v19.4h-7.42v-19.4h-5.29v-6.11h18v6.11H206.39z"/>
	<path class="st1" d="M233.21,145.86v25.51h-7.83v-25.51H233.21z"/>
	<path class="st1" d="M260.17,171.76c-3.59,0-6.51-1.19-8.77-3.57c-2.26-2.38-3.39-5.56-3.39-9.55c0-3.81,1.08-6.96,3.24-9.45
		c2.16-2.49,5.16-3.73,9-3.73c3.55,0,6.44,1.17,8.68,3.51c2.24,2.34,3.35,5.47,3.35,9.38c0,4.05-1.13,7.29-3.38,9.74
		C266.64,170.54,263.73,171.76,260.17,171.76z M260.13,165.97c1.32,0,2.27-0.58,2.85-1.73s0.87-3.26,0.87-6.33
		c0-4.44-1.19-6.65-3.57-6.65c-2.57,0-3.85,2.53-3.85,7.59C256.43,163.6,257.67,165.97,260.13,165.97z"/>
	<path class="st1" d="M308.88,171.37h-6.37l-6.99-11.27c-0.9-1.45-1.8-3.2-2.71-5.27c0.41,1.64,0.62,3.04,0.62,4.19v12.35h-6.35
		v-25.51h7.4l5.94,9.34c1.18,1.86,2.08,3.49,2.69,4.9c-0.4-2.18-0.6-4.41-0.6-6.69v-7.55h6.37V171.37z"/>
</g>
</svg>
