<?xml version="1.0" encoding="utf-8"?>
<!-- Generator: Adobe Illustrator 28.2.0, SVG Export Plug-In . SVG Version: 6.00 Build 0)  -->
<svg version="1.1" id="Layer_1" xmlns="http://www.w3.org/2000/svg" xmlns:xlink="http://www.w3.org/1999/xlink" x="0px" y="0px"
	 viewBox="0 0 172.01 183.98" style="enable-background:new 0 0 172.01 183.98;" xml:space="preserve">
<style type="text/css">
	.st0{fill:#FF4431;}
</style>
<g>
	<g>
		<path class="st0" d="M156.03,129.59c0.03-0.29-0.13-0.57-0.39-0.72c-2.16-1.24-4.04-2.32-6.12-3.52c0.67-0.5,0.88-0.8,1.1-0.81
			c10.08-0.26,12.22,3,7.21,12.22c-3.41,6.28-7.28,12.49-11.92,17.87c-6.92,8.02-16.44,11.2-27.66,2.94
			c-0.54-0.4-1.29,0.06-1.19,0.72c0.3,2.03,0.55,3.88,0.98,5.7c1.91,8.09-0.41,13.49-8.23,15.62c-7.85,2.14-15.99,3.58-24.1,4.3
			c-8.03,0.71-11.28-2.98-11.48-11.05c-0.02-0.77-0.1-1.55-0.19-2.44c-0.07-0.65-0.89-0.91-1.32-0.42c-1.92,2.2-3.71,4.07-5.04,6.22
			c-2.56,4.14-6.57,4.8-10.32,3.67c-7.46-2.24-15.02-4.64-21.86-8.27c-7.88-4.18-8.94-11.55-3.01-19.24
			c0.46-0.6,1.42-0.24,1.36,0.52c-0.18,2.13-0.29,3.84-0.65,5.5c-0.97,4.5,0.41,8.27,4.48,9.91c7.06,2.84,14.33,5.34,21.73,7.05
			c2.14,0.49,6.26-1.55,7.32-3.57c3.09-5.87,5.15-12.3,7.5-18.55c0.4-1.06,0.69-2.17,1.15-3.24c0.32-0.76,1.45-0.54,1.45,0.29
			c0.02,6.01,0.09,12.02-0.03,18.02c-0.19,9.81,1.72,11.74,11.02,11.62c7.81-0.1,15.74-3.16,23.29-5.84
			c3.76-1.34,4.76-5.37,3.87-9.65c-1.66-7.97-4.81-15.24-9.13-22.1c-0.56-0.89-0.9-1.93-1.07-3.04c-0.12-0.79,0.9-1.21,1.37-0.56
			c2.59,3.63,5.09,7.32,8.01,10.66c2.44,2.79,5.71,4.84,8.56,7.27c3.95,3.37,8.66,2.57,12.79,1.37
			C142.82,155.91,155.15,138.07,156.03,129.59z"/>
		<path class="st0" d="M160.85,90.59c-1.28,0.28-2.57,1.36-3.48,2.39c-1.94,2.22-3.63,4.66-5.41,7.02
			c-2.61,3.48-8.49,3.96-11.03-0.72c-4.57-8.42-7.1-17.33-5.52-27.09c0.56-3.48,1.62-7.1,5.19-7.46c2.15-0.22,4.97,2.04,6.84,3.85
			c5,4.83,9.69,5.01,14.7,0.04c2.53-2.51,1.55-7.27-2.03-11.77c-4.49-5.65-10.05-9.3-17.71-9.71c-0.52-0.03-0.86-0.55-0.67-1.03
			c0.49-1.25,0.7-2.03,1.19-2.55c4.01-4.24,3.39-8.6,1.36-13.66c-3.06-7.62-8.5-12.83-15.69-15.74c-7.49-3.04-15.3-6.9-23.72-3.52
			c-2.82,1.13-5.23,3.28-7.79,5.14c-0.42,0.31-1.01,0.08-1.16-0.41c-1.87-6.33-5.2-11.4-8.61-12.67
			c-9.66-3.59-19.51-3.61-28.98,0.17C46.35,7.64,43.08,13.78,44.2,26.89c0.03,0.33-0.08,0.67-0.21,1.11
			c-0.09,0.32-0.39,0.54-0.72,0.55c-0.66,0.01-1.33,0.06-1.82-0.21c-7.98-4.35-14.75-2.26-21.12,3.49
			c-6.4,5.78-10.96,12.74-13.77,20.81c-2.15,6.18,1.33,13.44,7.14,15.25c3.7,1.15,7.49,2,11.71,3.1c-0.3-0.88-0.32-1.35-0.54-1.48
			c-3.07-1.74-6.16-3.45-9.27-5.12c-5.64-3.03-7.93-8.77-4.67-14.17c3.33-5.51,7.13-10.91,11.61-15.49
			c5.06-5.16,11.27-6.5,18.37-2.84c9.47,4.88,14.96,12.98,19.55,22.02c1.15,2.26,2.28,4.52,3.7,7.34c0.33,0.65,1.3,0.51,1.42-0.21
			c0.02-0.14,0.04-0.26,0.06-0.38c0.11-0.7-0.01-1.82-0.26-2.48c-3.17-8.51-6.93-16.62-13.56-23.2c-8.56-8.48-6.21-21.58,4.29-27.04
			C64.47,3.61,73.35,3.51,82.2,4.3c4.55,0.41,10.91,5.6,10.1,11.92c-1.37,10.67-2.38,21.38-3.51,32.07c-0.24,2.32-0.38,4.66-0.54,7
			c-0.03,0.42,0.29,0.79,0.71,0.81l0.01,0c0.39,0.02,0.73-0.26,0.78-0.64c1.34-8.79,2.38-17.64,4.17-26.34
			c1.92-9.3,7.92-17.11,17.48-15.67c5.76,0.87,11.86,1.98,16.87,4.71c4.89,2.67,9.29,7.02,12.62,11.56
			c3.83,5.22,0.17,17.04-5.11,18.54c-9.98,2.83-15.75,9.26-17.8,19.31c-0.09,0.45-0.33,0.87-0.65,1.33
			c-0.38,0.57-1.27,0.36-1.37-0.32c-0.27-1.83-0.45-3.45-1.12-4.84c-0.93-1.93-2.37-4.42-4.14-5c-5.59-1.86-11.65,3.08-11.67,9.01
			c-0.02,5.38-0.01,10.75-0.01,16.13l0.4,6.25l-3.06-5.65c-2.41-5.1-4.85-10.19-7.16-15.33c-1.95-4.33-5.2-5.71-9.56-4.1
			c-4.34,1.6-6.06,5.14-6.57,9.16c-0.62,4.89-0.79,9.84-1.07,14.77c-0.04,0.78-1.12,0.99-1.44,0.27c-0.25-0.57-0.45-1.15-0.64-1.74
			c-1.32-4.06-2.39-8.22-3.98-12.16c-3.51-8.68-4.59-8.16-13.53-3.77c-1.3,0.64-2.1,2.28-3.16,3.92c-0.3,0.47-0.99,0.44-1.28-0.04
			c-2.89-4.83-7.28-1.19-10.71-0.55c-3.41,0.63-4.58,4.29-4.27,8c0.16,1.9,0.28,3.8,0.38,5.7c0.49,5.48,1.2,12.12,1.2,12.12
			c-0.57-1.77-1.7-4.1-3.06-6.59C25.81,82.4,21.7,78.43,21.7,78.43c-2.31-2.21-4.9-4.18-7.68-5.46C7.3,69.89,0.75,76.56,0.2,85.7
			c-0.78,12.9,0.72,25.63,4.47,37.78c2.68,8.67,7.64,16.7,12.1,24.72c1.74,3.14,8.51,2.75,12.9-0.2c3.67-2.47,2.6-6.24,1.6-9.38
			c-1.12-3.54-3.35-6.7-4.77-10.17c-1.19-2.91-2.19-5.91-3.19-8.9c-0.26-0.78,0.74-1.36,1.28-0.75c1.81,2.03,3.28,4.22,4.72,6.42
			c3.86,5.89,7.41,12.02,11.64,17.63c3.28,4.34,8.06,4.44,14.36,1.35c4.89-2.4,6.52-5.44,5.5-10.89c-0.76-4.04-1.94-7.99-2.72-12.02
			c-0.62-3.21-1.13-6.45-1.64-9.68c-0.13-0.84,1.02-1.23,1.42-0.47c3.29,6.23,6,12.64,8.3,19.2c1.99,5.68,5.11,9.32,9,8.95
			c11.31-1.05,14.69-4.8,14.66-16.24c-0.01-2.67-0.06-5.33,0.04-8c0.02-0.5,0.15-0.99,0.34-1.58c0.21-0.66,1.12-0.71,1.41-0.08
			c1.8,3.92,3.3,7.28,4.92,10.59c2.86,5.82,6,7.69,11.46,5.74c8.79-3.14,11.56-2.92,11.06-11.23c-0.37-6.19-0.6-12.39-0.86-18.58
			c-0.03-0.77,0.97-1.09,1.39-0.44c2.16,3.32,3.91,6.78,5.72,10.19c3.97,7.48,16.08,14.23,23.65,12.25
			c11.03-2.88,19.82-9.17,20.84-23.62C170.33,90.84,168.19,88.98,160.85,90.59z M56.95,135.45c0.01,1.58-1.44,4.57-1.89,4.51
			c-3.24-0.44-6.11,4.73-9.4,0.73c-3.43-4.17-6.92-8.31-10.1-12.68c-5.12-7.03-9.95-14.28-15.05-21.32
			c-0.82-1.12-2.05-1.94-3.43-2.58c-0.52-0.24-1.12,0.18-1.07,0.76c1.15,12.24,6.2,22.79,11.1,33.37c1.31,2.82,2.39,5.32-1.02,7.18
			c-3.19,1.74-6.46,2.13-8.58-1.57c-5.98-10.46-11.04-21.42-12.46-33.46c-1.1-9.34-1.11-18.84-1.06-28.27
			c0.02-4.74,5.48-7.16,10.04-5.21c6.43,2.76,9.37,8.42,12.22,14.2c4.02,8.13,8.03,16.27,12.04,24.41c0.13,0.26,0.4,0.43,0.7,0.42
			l0.69-0.02c0.4-0.01,0.72-0.34,0.73-0.74c0.04-1.49,0.18-2.99-0.05-4.43c-1.41-8.9-3.01-17.78-4.41-26.68
			c-0.65-4.14,1.99-5.48,5.5-6c3.7-0.55,5.15,1,5.92,4.68c2.68,12.82,5.97,25.52,8.62,38.35C56.94,125.76,56.93,130.66,56.95,135.45
			z M105.02,126.28c-1.26,0.06-3.24-1.02-3.8-2.13c-3.92-7.74-7.56-15.63-11.27-23.47c-0.02-0.04-0.04-0.08-0.06-0.12
			c-1.74,0.37-1.41,0.3-3.15,0.67v29.95c0,0.3-0.19,0.57-0.46,0.69c-2.48,1.08-4.14,2.06-5.92,2.43c-7.93,1.63-8.84,1.06-12.25-7.3
			c-5.28-12.93-10.72-25.79-15.61-38.86c-2.37-6.33-1.77-13.22,5.31-15.45c2.53-0.8,3.66-0.44,4.42,2.04
			c2.63,8.62,5.3,17.23,8.06,25.8c0.8,2.48,1.84,4.87,3.52,7.08c0.38,0.5,1.17,0.35,1.34-0.25c0.27-0.96,0.53-1.91,0.55-2.87
			c0.12-8.44,0.1-16.89,0.14-25.33c0.01-1.33-0.31-2.83,0.2-3.95c1.26-2.79,0.91-6.84,5.62-7.16c4.28-0.29,5.19,3.08,6.49,5.71
			c4.28,8.67,8.3,17.48,12.46,26.22c0.15,0.31,0.46,0.54,1.03,0.99c0.49,0.39,1.22,0.04,1.22-0.59c0.01-1.87,0.03-3.22-0.01-4.58
			c-0.32-9.29-0.64-18.57-1.04-27.86c-0.14-3.3,1.01-5.42,4.5-5.87c3.54-0.45,5.67,0.64,6,4.6c0.48,5.73,1.47,11.41,1.89,17.14
			c0.72,9.92,1.12,19.86,1.76,29.79C116.52,122.15,113.49,125.86,105.02,126.28z M146.07,118.26c-8.62-0.36-14.52-5.68-18.98-12.71
			c-6.75-10.65-9.13-22.4-7.1-34.63c2.76-16.56,19.49-25.1,31.52-16.67c3.54,2.48,5.98,6.51,9.02,10.15
			c0.27,0.32,0.23,0.79-0.09,1.06c-5.47,4.57-7.22,4.4-11.64,0.07c-3.08-3.03-6.31-5.25-10.88-3.03c-3.99,1.95-5.18,5.27-5.86,9.47
			c-1.57,9.68,1.14,18.66,4.61,27.25c1.21,2.99,5.54,5.54,8.98,6.61c4.38,1.36,7.84-1.77,10.08-5.5c2.42-4.03,4.75-7.84,10.24-5.86
			c0.3,0.11,0.51,0.41,0.5,0.73C166.2,108.62,157.57,118.75,146.07,118.26z"/>
	</g>
</g>
</svg>
